<svg xmlns="http://www.w3.org/2000/svg" width="328" height="10" viewBox="0 0 328 10">
    <path data-name="bottom" d="m-7609.966-5524-5.549-5-5.122 4.614-5.119-4.614-5.122 4.614L-7636-5529l-5.119 4.614-5.122-4.614-5.121 4.614-5.12-4.614-5.034 4.535-5.032-4.535-5.119 4.614-5.122-4.614-5.121 4.614-5.122-4.614-5.122 4.614-5.119-4.614-5.122 4.614-5.121-4.614-5.122 4.614-5.122-4.614-5.119 4.614L-7728-5529l-5.12 4.614-5.121-4.614-5.122 4.614-5.119-4.614-5.122 4.614-5.122-4.614-5.121 4.614-5.122-4.614-5.121 4.614-5.12-4.614-5.122 4.614-5.121-4.614-5.048 4.548-5.048-4.548-5.122 4.614-5.121-4.614-5.12 4.614-5.121-4.614-5.122 4.614-5.12-4.614-5.123 4.614-5.12-4.614-5.122 4.614-5.121-4.614-5.122 4.614L-7861-5529l-5.122 4.614-5.12-4.614-5.121 4.614-5.122-4.614-5.121 4.614-5.122-4.614-5.12 4.614-5.121-4.614-5.122 4.614-5.122-4.614-5.121 4.614-4.668-4.207V-5534h328v5.162l-.177-.16-5.121 4.614-5.124-4.614-5.544 5z" transform="translate(7922 5534.001)" style="fill:#fff"/>
</svg>
