<svg xmlns="http://www.w3.org/2000/svg" width="240" height="24" viewBox="0 0 240 24">
    <defs>
        <clipPath id="d5j8zw69ca">
            <path data-name="사각형 7255" style="fill:#fff" d="M0 0h240v24H0z"/>
        </clipPath>
    </defs>
    <g data-name="그룹 21972" style="clip-path:url(#d5j8zw69ca)">
        <path data-name="패스 92931" d="M10.835 14.545h4.015v4.118a6.062 6.062 0 0 1-3.118.742c-3.99 0-6-3.054-6-7.4 0-4.329 1.938-7.277 5.931-7.277A11.4 11.4 0 0 1 17.832 6.7l.774-4.992A14.293 14.293 0 0 0 11.531 0C4.39 0 0 4.853 0 12.03 0 19.173 4.059 24 11.4 24a15.23 15.23 0 0 0 8.448-2.447V10.291h-9.692z" style="fill:#fff"/>
        <path data-name="패스 92932" d="M25.377 9.268c-2.886-1.1-3.526-1.672-3.526-2.854 0-1.071.839-1.8 2.588-1.8a12.646 12.646 0 0 1 6.027 1.869l.872-4.824A14.722 14.722 0 0 0 24.366.12c-4.422 0-7.907 2.374-7.907 6.836 0 3.819 2.008 5.332 6.635 7.106 3.253 1.244 3.921 1.851 3.921 3.153 0 1.375-1.14 2.079-2.784 2.079a16.453 16.453 0 0 1-7.339-2.143l-.836 4.891a18.987 18.987 0 0 0 8.075 1.738c4.6 0 8.28-2.207 8.28-7.236 0-3.684-2.006-5.429-7.033-7.274" transform="translate(6.283 .047)" style="fill:#fff"/>
        <path data-name="패스 92933" d="M33.921 3.465h8.259v19.9h3.52v-19.9h7.853V.351H33.921z" transform="translate(13.275 .137)" style="fill:#fff"/>
        <path data-name="패스 92934" d="M68.428 10.005h-14.25V.35h-3.52v23.018h3.52V13.086h14.25v10.282h3.52V.35h-3.52z" transform="translate(19.826 .137)" style="fill:#fff"/>
        <path data-name="패스 92935" d="M70.4 23.367h17.839v-3.113H73.752v-7.209h12.017V9.93H73.752V3.465h14.487V.351H70.4z" transform="translate(27.552 .137)" style="fill:#fff"/>
        <path data-name="패스 92936" d="M92.09 23.367h3.35V13.049h11.982V9.935H95.441v-6.47h13.811V.351H92.09z" transform="translate(36.041 .137)" style="fill:#fff"/>
        <path data-name="패스 92937" d="M119.226 14.9c3.961-.237 7.243-3.012 7.243-7.175 0-5.417-4.3-7.378-8.665-7.378h-9.984v23.02h3.52V14.9h3.487c2.708 1.963 6.464 8.8 11.543 8.8h2.305v-3.074h-1.764c-2.844 0-5.45-3.419-7.684-5.721M111.34 12.1V3.43h6.837c2.573 0 4.6 1.422 4.6 4.366 0 2.709-2.031 4.3-4.6 4.3z" transform="translate(42.197 .137)" style="fill:#fff"/>
        <path data-name="패스 92938" d="M125.944 23.367h17.837v-3.113h-14.487v-7.209h12.017V9.93h-12.017V3.465h14.487V.351h-17.837z" transform="translate(49.289 .137)" style="fill:#fff"/>
        <path data-name="패스 92939" d="m152.5 10.659-4.567-1.219c-2-.508-3.114-1.32-3.114-2.876 0-1.727 1.624-3.182 5.314-3.182a15.025 15.025 0 0 1 7.142 1.9l1.049-3.317a18.273 18.273 0 0 0-8.057-1.833c-6.228 0-9.07 3.114-9.07 6.7 0 3.012 1.86 5.01 5.212 5.856l4.637 1.184c2.573.643 4.028 1.524 4.028 3.147 0 2.133-2.133 3.522-5.483 3.522a14.3 14.3 0 0 1-7.177-2.1l-.846 3.352a17.474 17.474 0 0 0 7.954 2c5.45 0 9.207-2.776 9.207-7.04 0-3.25-2.166-4.976-6.228-6.093" transform="translate(55.259 .051)" style="fill:#fff"/>
        <path data-name="패스 92940" d="M174.961.351v9.618H160.71V.351h-3.519v23.016h3.519V13.05h14.25v10.317h3.52V.351z" transform="translate(61.519 .137)" style="fill:#fff"/>
    </g>
</svg>
