<svg xmlns="http://www.w3.org/2000/svg" width="375" height="190" viewBox="0 0 375 190">
    <defs>
        <clipPath id="dv7c1cqrka">
            <path data-name="사각형 7178" style="fill:#0e563c" d="M0 0h375v190H0z"/>
        </clipPath>
        <clipPath id="lwky2gj1hb">
            <path data-name="사각형 7177" style="fill:none" d="M0 0h375v190H0z"/>
        </clipPath>
        <clipPath id="1x78y0nasc">
            <path data-name="사각형 7168" style="fill:none" d="M0 0h122.59v122.589H0z"/>
        </clipPath>
        <clipPath id="ns5xxhqswd">
            <path data-name="패스 92896" d="m53.948 158.575 8.524 2.285c7.7-28.535 24.587-51.861 47.134-65.4L100.9 78.492a178.334 178.334 0 0 0-46.953 80.083" transform="translate(-53.948 -78.492)" style="fill:none"/>
        </clipPath>
        <clipPath id="didspp619e">
            <path data-name="사각형 7170" style="fill:none" d="M0 0h118.992v118.992H0z"/>
        </clipPath>
        <clipPath id="r15wpinl0f">
            <path data-name="패스 92897" d="M53.949 158.571c-8.327 31.055-10.528 61.414-6.337 89.5L71.483 228.8c-11.547-18.8-16.151-41.311-9.045-67.815l.035-.131z" transform="translate(-45.542 -158.571)" style="fill:none"/>
        </clipPath>
        <clipPath id="xn97zmhneg">
            <path data-name="사각형 7172" style="fill:none" d="M0 0h98.649v98.65H0z"/>
        </clipPath>
        <clipPath id="0r6ecxsrih">
            <path data-name="패스 92898" d="M344.89 230.5c21.844 6.193 30.784 26.736 24.515 48.208l8.524 2.292c5.712-21.307.931-43.378-12.829-62.6z" transform="translate(-344.89 -218.391)" style="fill:none"/>
        </clipPath>
        <clipPath id="n0e9y54boi">
            <path data-name="사각형 7174" style="fill:none" d="M0 0h292.558v187.105H0z"/>
        </clipPath>
        <clipPath id="8imzjjlr8j">
            <path data-name="패스 92899" d="M128.547 191.273c-14.24-3.819-20.959-22.383-16.894-37.545a44.553 44.553 0 0 1 1.5-4.521l-7.493-3.439a57.483 57.483 0 0 0-3.685 9.929c-13.646 50.893 15.59 93.577 63.487 106.419 91.059 24.415 138.034-42.742 178.811-31.809.2.053.407.135.622.192l20.212-12.11c-15.325-21.467-41.786-39.444-77.2-48.938-72.084-19.326-126.636 30.6-159.362 21.822" transform="translate(-98.61 -145.768)" style="fill:none"/>
        </clipPath>
        <clipPath id="hkaltk02ek">
            <path data-name="사각형 7176" style="fill:none" d="M0 0h337.308v188.077H0z"/>
        </clipPath>
        <clipPath id="j9c7fhchbl">
            <path data-name="패스 92900" d="M251.325 34.689c-55.673-14.927-111.461 5.277-150.424 43.8l8.707 16.96c20.422-12.266 45.473-16.469 72.5-9.221 52.629 14.11 78.479 63.7 125.439 76.292 56.318 15.1 94.832-3.97 117.022-55.492l-8.146-3.695c-6.187 13.554-20.018 28.155-36.615 23.705-15.649-4.195-28.554-22.394-49.156-42.129-20.519-20.246-44.7-40.94-79.329-50.223" transform="translate(-100.901 -29.757)" style="fill:none"/>
        </clipPath>
    </defs>
    <g data-name="BG" style="clip-path:url(#dv7c1cqrka)">
        <path data-name="사각형 7166" style="fill:#0e563c" d="M0 0h375v190H0z"/>
        <g data-name="그룹 21856" style="opacity:.2">
            <g data-name="그룹 21855" style="clip-path:url(#lwky2gj1hb)">
                <g data-name="그룹 21834" style="opacity:.327">
                    <g data-name="그룹 21833">
                        <g data-name="그룹 21832" style="clip-path:url(#1x78y0nasc)" transform="translate(-29.459 30.242)">
                            <g data-name="그룹 21831">
                                <g data-name="그룹 21830" style="clip-path:url(#ns5xxhqswd)" transform="translate(31.636 19.598)">
                                    <path data-name="사각형 7167" transform="rotate(-29.991 31.336 71.683)" style="fill:#71e4ce" d="M0 0h89.746v89.746H0z"/>
                                </g>
                            </g>
                        </g>
                    </g>
                </g>
                <g data-name="그룹 21839" style="opacity:.327">
                    <g data-name="그룹 21838">
                        <g data-name="그룹 21837" style="clip-path:url(#didspp619e)" transform="translate(-51.771 117.509)">
                            <g data-name="그룹 21836">
                                <g data-name="그룹 21835" style="clip-path:url(#r15wpinl0f)" transform="translate(45.542 12.409)">
                                    <path data-name="사각형 7169" transform="rotate(-29.991 35.346 100.577)" style="fill:#71e4ce" d="M0 0h87.112v87.112H0z"/>
                                </g>
                            </g>
                        </g>
                    </g>
                </g>
                <g data-name="그룹 21844" style="opacity:.327">
                    <g data-name="그룹 21843">
                        <g data-name="그룹 21842" style="clip-path:url(#xn97zmhneg)" transform="translate(262.506 169.596)">
                            <g data-name="그룹 21841">
                                <g data-name="그룹 21840" style="clip-path:url(#0r6ecxsrih)" transform="translate(30.613 20.143)">
                                    <path data-name="사각형 7171" transform="rotate(-30 14.466 65.103)" style="fill:#71e4ce" d="M0 0h72.22v72.22H0z"/>
                                </g>
                            </g>
                        </g>
                    </g>
                </g>
                <g data-name="그룹 21849" style="opacity:.327">
                    <g data-name="그룹 21848">
                        <g data-name="그룹 21847" style="clip-path:url(#n0e9y54boi)" transform="translate(27.838 93.367)">
                            <g data-name="그룹 21846">
                                <g data-name="그룹 21845" style="clip-path:url(#8imzjjlr8j)" transform="translate(19.001 23.748)">
                                    <path data-name="사각형 7173" transform="rotate(-74.99 51.33 59.043)" style="fill:#71e4ce" d="M0 0h121.218v270.39H0z"/>
                                </g>
                            </g>
                        </g>
                    </g>
                </g>
                <g data-name="그룹 21854" style="opacity:.327">
                    <g data-name="그룹 21853">
                        <g data-name="그룹 21852" style="clip-path:url(#hkaltk02ek)" transform="translate(41.969 -28.652)">
                            <g data-name="그룹 21851">
                                <g data-name="그룹 21850" style="clip-path:url(#j9c7fhchbl)" transform="translate(7.161 29.757)">
                                    <path data-name="사각형 7175" transform="rotate(-74.99 45.588 42.383)" style="fill:#71e4ce" d="M0 0h108.917v320.019H0z"/>
                                </g>
                            </g>
                        </g>
                    </g>
                </g>
            </g>
        </g>
    </g>
</svg>
