<svg xmlns="http://www.w3.org/2000/svg" width="375" height="370" viewBox="0 0 375 370">
    <defs>
        <clipPath id="vnovac7j4a">
            <path data-name="사각형 7196" transform="translate(51 29)" style="fill:none" d="M0 0h375v370H0z"/>
        </clipPath>
        <clipPath id="s6yahekwsb">
            <path data-name="사각형 7195" style="fill:none" d="M0 0h375v370H0z"/>
        </clipPath>
        <clipPath id="ehhhxk5fmc">
            <path data-name="사각형 7182" style="fill:none" d="M0 0h122.575v122.574H0z"/>
        </clipPath>
        <clipPath id="s2k48sulxd">
            <path data-name="패스 92901" d="m53.949 158.561 8.523 2.285c7.7-28.532 24.584-51.854 47.128-65.4l-8.7-16.958a178.312 178.312 0 0 0-46.946 80.069" transform="translate(-53.949 -78.492)" style="fill:none"/>
        </clipPath>
        <clipPath id="kz7ir2xo7e">
            <path data-name="사각형 7184" style="fill:none" d="M0 0h118.978v118.978H0z"/>
        </clipPath>
        <clipPath id="nkadk3tyof">
            <path data-name="패스 92902" d="M53.948 158.571c-8.326 31.051-10.527 61.407-6.336 89.492L71.48 228.8c-11.546-18.8-16.154-41.31-9.049-67.81l.036-.135z" transform="translate(-45.542 -158.571)" style="fill:none"/>
        </clipPath>
        <clipPath id="rgkx857u5g">
            <path data-name="사각형 7186" style="fill:none" d="M0 0h98.637v98.638H0z"/>
        </clipPath>
        <clipPath id="0u1oso3t4h">
            <path data-name="패스 92903" d="M344.89 230.5c21.841 6.192 30.78 26.733 24.512 48.2l8.523 2.285c5.711-21.3.931-43.373-12.827-62.6z" transform="translate(-344.89 -218.391)" style="fill:none"/>
        </clipPath>
        <clipPath id="88vbc8o1ni">
            <path data-name="사각형 7188" style="fill:none" d="M0 0h113.914v113.914H0z"/>
        </clipPath>
        <clipPath id="j6bymd8dwj">
            <path data-name="패스 92904" d="M369.4 278.718c-5.184 17.66-18.674 30.031-42.72 35.459l14.032 36.6c16.234-17.13 29.229-40.01 37.211-69.778z" transform="translate(-326.682 -278.718)" style="fill:none"/>
        </clipPath>
        <clipPath id="2phc0n39ok">
            <path data-name="사각형 7190" style="fill:none" d="M0 0h292.523v187.083H0z"/>
        </clipPath>
        <clipPath id="xo675o2oyl">
            <path data-name="패스 92905" d="M128.543 191.268c-14.238-3.819-20.956-22.38-16.892-37.541a44.671 44.671 0 0 1 1.5-4.522l-7.492-3.437a57.486 57.486 0 0 0-3.685 9.929c-13.644 50.886 15.586 93.569 63.478 106.409 91.048 24.412 138.017-42.737 178.79-31.805.2.054.407.135.622.192l20.21-12.109c-15.322-21.467-41.779-39.442-77.185-48.935-72.073-19.325-126.62 30.591-159.342 21.818" transform="translate(-98.611 -145.768)" style="fill:none"/>
        </clipPath>
        <clipPath id="usx5z06qlm">
            <path data-name="사각형 7192" style="fill:none" d="M0 0h337.267v188.055H0z"/>
        </clipPath>
        <clipPath id="n1d8882p2n">
            <path data-name="패스 92906" d="M251.307 34.688c-55.666-14.925-111.444 5.277-150.406 43.8l8.706 16.958c20.42-12.265 45.468-16.467 72.493-9.22 52.623 14.108 78.47 63.693 125.424 76.283 56.311 15.1 94.821-3.97 117.008-55.485l-8.145-3.692c-6.187 13.552-20.017 28.152-36.612 23.7-15.647-4.195-28.551-22.391-49.15-42.124-20.516-20.247-44.7-40.938-79.318-50.22" transform="translate(-100.901 -29.757)" style="fill:none"/>
        </clipPath>
        <clipPath id="jo2a6pe80o">
            <path data-name="사각형 7194" style="fill:none" d="M0 0h331.245v200.09H0z"/>
        </clipPath>
        <clipPath id="32yjn2xlxp">
            <path data-name="패스 92907" d="M47.613 248.071c9.625 64.5 52.969 117.049 133.228 138.568 53.054 14.224 117.4 8.951 159.842-35.868l-14.037-36.606c-29.83 6.754-75.947 2.814-142.669-15.076-40.744-10.924-89.9-33.567-112.5-70.288z" transform="translate(-47.613 -228.801)" style="fill:none"/>
        </clipPath>
    </defs>
    <g data-name="그룹 21895" style="clip-path:url(#vnovac7j4a)" transform="translate(-51 -29)">
        <path data-name="사각형 7180" transform="translate(51 29)" style="fill:#0e563c" d="M0 0h375v370H0z"/>
        <g data-name="그룹 21894" style="opacity:.2">
            <g data-name="그룹 21893" transform="translate(50.999 28.999)" style="clip-path:url(#s6yahekwsb)">
                <g data-name="그룹 21862" style="opacity:.327">
                    <g data-name="그룹 21861">
                        <g data-name="그룹 21860" style="clip-path:url(#ehhhxk5fmc)" transform="translate(-29.45 30.298)">
                            <g data-name="그룹 21859">
                                <g data-name="그룹 21858" style="clip-path:url(#s2k48sulxd)" transform="translate(31.633 19.596)">
                                    <path data-name="사각형 7181" transform="rotate(-29.991 31.332 71.676)" style="fill:#71e4ce" d="M0 0h89.735v89.735H0z"/>
                                </g>
                            </g>
                        </g>
                    </g>
                </g>
                <g data-name="그룹 21867" style="opacity:.327">
                    <g data-name="그룹 21866">
                        <g data-name="그룹 21865" style="clip-path:url(#kz7ir2xo7e)" transform="translate(-51.759 117.556)">
                            <g data-name="그룹 21864">
                                <g data-name="그룹 21863" style="clip-path:url(#nkadk3tyof)" transform="translate(45.536 12.408)">
                                    <path data-name="사각형 7183" transform="rotate(-29.991 35.341 100.564)" style="fill:#71e4ce" d="M0 0h87.101v87.101H0z"/>
                                </g>
                            </g>
                        </g>
                    </g>
                </g>
                <g data-name="그룹 21872" style="opacity:.327">
                    <g data-name="그룹 21871">
                        <g data-name="그룹 21870" style="clip-path:url(#rgkx857u5g)" transform="translate(262.48 169.635)">
                            <g data-name="그룹 21869">
                                <g data-name="그룹 21868" style="clip-path:url(#0u1oso3t4h)" transform="translate(30.609 20.141)">
                                    <path data-name="사각형 7185" transform="rotate(-30 14.466 65.097)" style="fill:#71e4ce" d="M0 0h72.211v72.211H0z"/>
                                </g>
                            </g>
                        </g>
                    </g>
                </g>
                <g data-name="그룹 21877" style="opacity:.327">
                    <g data-name="그룹 21876">
                        <g data-name="그룹 21875" style="clip-path:url(#88vbc8o1ni)" transform="translate(239.438 227.325)">
                            <g data-name="그룹 21874">
                                <g data-name="그룹 21873" style="clip-path:url(#j6bymd8dwj)" transform="translate(35.446 22.771)">
                                    <path data-name="사각형 7187" transform="rotate(-29.99 17.581 75.623)" style="fill:#71e4ce" d="M0 0h83.395v83.395H0z"/>
                                </g>
                            </g>
                        </g>
                    </g>
                </g>
                <g data-name="그룹 21882" style="opacity:.327">
                    <g data-name="그룹 21881">
                        <g data-name="그룹 21880" style="clip-path:url(#2phc0n39ok)" transform="translate(27.84 93.416)">
                            <g data-name="그룹 21879">
                                <g data-name="그룹 21878" style="clip-path:url(#xo675o2oyl)" transform="translate(19 23.745)">
                                    <path data-name="사각형 7189" transform="rotate(-74.99 51.322 59.037)" style="fill:#71e4ce" d="M0 0h121.204v270.358H0z"/>
                                </g>
                            </g>
                        </g>
                    </g>
                </g>
                <g data-name="그룹 21887" style="opacity:.327">
                    <g data-name="그룹 21886">
                        <g data-name="그룹 21885" style="clip-path:url(#usx5z06qlm)" transform="translate(41.97 -28.589)">
                            <g data-name="그룹 21884">
                                <g data-name="그룹 21883" style="clip-path:url(#n1d8882p2n)" transform="translate(7.16 29.754)">
                                    <path data-name="사각형 7191" transform="rotate(-74.99 45.583 42.378)" style="fill:#71e4ce" d="M0 0h108.904v319.981H0z"/>
                                </g>
                            </g>
                        </g>
                    </g>
                </g>
                <g data-name="그룹 21892" style="opacity:.327">
                    <g data-name="그룹 21891">
                        <g data-name="그룹 21890" style="clip-path:url(#jo2a6pe80o)" transform="translate(-29.877 195.507)">
                            <g data-name="그룹 21889">
                                <g data-name="그룹 21888" style="clip-path:url(#32yjn2xlxp)" transform="translate(25.725 4.677)">
                                    <path data-name="사각형 7193" transform="rotate(-74.991 62.228 74.375)" style="fill:#71e4ce" d="M0 0h124.132v309.662H0z"/>
                                </g>
                            </g>
                        </g>
                    </g>
                </g>
            </g>
        </g>
    </g>
</svg>
