<svg data-name="btn_ Location" xmlns="http://www.w3.org/2000/svg" width="31" height="31" viewBox="0 0 31 31">
    <defs>
        <filter id="5yescic9ia" x="0" y="0" width="31" height="31" filterUnits="userSpaceOnUse">
            <feOffset dx="1" dy="1"/>
            <feGaussianBlur result="blur"/>
            <feFlood flood-color="#161b1d" flood-opacity=".239"/>
            <feComposite operator="in" in2="blur"/>
            <feComposite in="SourceGraphic"/>
        </filter>
    </defs>
    <g style="filter:url(#5yescic9ia)">
        <g data-name="타원 2112" style="fill:#fff;stroke:#e3e3e3">
            <circle cx="15" cy="15" r="15" style="stroke:none"/>
            <circle cx="15" cy="15" r="14.5" style="fill:none"/>
        </g>
    </g>
    <g data-name="그룹 21940">
        <path data-name="패스 223" d="M13.575 7.4a2.5 2.5 0 1 0 2.5 2.5 2.5 2.5 0 0 0-2.5-2.5zm0 1.015A1.485 1.485 0 1 1 12.09 9.9a1.486 1.486 0 0 1 1.485-1.485z" transform="translate(1.925 3.6)" style="fill-rule:evenodd;fill:#c8d265"/>
        <path data-name="패스 224" d="M10.366 1a6.543 6.543 0 0 0-6.488 6.59 10.286 10.286 0 0 0 2.2 6.073 17.186 17.186 0 0 0 4 3.833.528.528 0 0 0 .574 0 17.186 17.186 0 0 0 4-3.833 10.286 10.286 0 0 0 2.2-6.073A6.543 6.543 0 0 0 10.366 1zm0 1.087a5.463 5.463 0 0 1 5.418 5.5A9.189 9.189 0 0 1 13.8 13.01a16.318 16.318 0 0 1-3.43 3.369 16.318 16.318 0 0 1-3.43-3.369 9.189 9.189 0 0 1-1.992-5.42 5.463 5.463 0 0 1 5.418-5.5z" transform="translate(5.122 6)" style="fill:#2c2a29;fill-rule:evenodd"/>
    </g>
</svg>
